<svg xmlns="http://www.w3.org/2000/svg" fill="none" viewBox="0 0 104 37" height="37" width="104">
<path fill="#0A3B6D" d="M0.060792 24.7476L2.98359 21.8361C3.09174 21.7273 3.2756 21.7735 3.31886 21.9232C3.65143 23.0687 5.06551 26.4999 9.55651 26.4999C12.4333 26.4999 13.9367 25.6591 13.9367 23.9748C13.9367 22.6959 13.1336 21.5504 10.0243 20.5409L7.4827 19.7002C2.6348 18.1166 0.596143 16.1656 0.596143 12.5304C0.596143 8.65845 4.10567 6.03271 8.92382 6.03271C13.742 6.03271 16.8351 8.05984 17.8463 10.7944C17.8734 10.8679 17.8544 10.9495 17.8031 11.0039L15.1263 13.88C15.029 13.9861 14.8532 13.9589 14.7938 13.8256C14.3936 12.9331 12.9579 10.4761 9.15635 10.4761C6.9149 10.4761 5.57653 11.3168 5.57653 12.7317C5.57653 13.978 6.51204 14.6827 8.01805 15.1208L11.0274 16.0296C16.5783 17.6785 18.9197 20.0348 18.9197 23.8034C18.9197 27.9093 15.175 30.8725 9.65655 30.8725C5.06821 30.8725 1.65062 28.3801 0.0202351 24.9788C-0.017618 24.8999 -0.00139523 24.8074 0.060792 24.7448V24.7476Z"></path>
<path fill="#0A3B6D" d="M20.9287 23.2673V6.20407C20.9287 6.09251 21.0179 6 21.1315 6H25.4089C25.5198 6 25.6117 6.08979 25.6117 6.20407V23.2673C25.6117 25.0849 26.4823 26.3638 28.8887 26.3638H29.0212C29.132 26.3638 29.2239 26.4535 29.2239 26.5678V30.369C29.2239 30.4806 29.1347 30.5731 29.0212 30.5731H28.3885C23.4378 30.5731 20.9314 26.9705 20.9314 23.27L20.9287 23.2673Z"></path>
<path fill="#0A3B6D" d="M30.7275 8.96286C30.7275 7.28946 32.1633 5.90449 33.8829 6.00516C35.3564 6.09224 36.5569 7.29763 36.6434 8.78056C36.7462 10.5111 35.37 11.9587 33.7044 11.9587C32.0389 11.9587 30.7275 10.6118 30.7275 8.96286ZM31.5657 13.4035H35.8431C35.954 13.4035 36.0459 13.4933 36.0459 13.6076V30.064C36.0459 30.1756 35.9567 30.2681 35.8431 30.2681H31.5657C31.4549 30.2681 31.3629 30.1783 31.3629 30.064V13.6076C31.3629 13.496 31.4522 13.4035 31.5657 13.4035Z"></path>
<path fill="#0A3B6D" d="M55.1745 19.5971V30.1327C55.1745 30.1899 55.1285 30.2334 55.0744 30.2334H50.6267C50.5699 30.2334 50.5266 30.1871 50.5266 30.1327V21.08C50.5266 18.555 49.1234 16.7727 47.1469 16.7727C44.9055 16.7727 43.3346 18.5577 43.3346 21.08V30.1327C43.3346 30.1899 43.2886 30.2334 43.2345 30.2334H38.7543C38.6976 30.2334 38.6543 30.1871 38.6543 30.1327V13.0015C38.6543 12.9443 38.7003 12.9008 38.7543 12.9008H42.2422C42.2936 12.9008 42.3369 12.9389 42.3423 12.9933L42.5694 15.1919C42.5802 15.2871 42.7046 15.317 42.7559 15.2354C44.0889 13.0967 45.9924 12.5688 48.0527 12.5688C52.0002 12.5688 55.1772 15.4966 55.1772 19.6026L55.1745 19.5971Z"></path>
<path fill="#0A3B6D" d="M72.1306 34.072C72.1306 33.0299 71.8953 32.3224 70.8922 32.3224C69.6539 32.3224 67.3476 33.5332 64.8709 34.3414C62.3618 35.1821 59.7202 35.6202 57.8464 33.9713C55.8727 32.2544 55.3373 29.0899 58.0141 26.5676L60.2231 24.4806C59.2524 23.3024 58.7198 21.7895 58.7198 20.0372C58.7198 15.6619 61.9643 12.5654 66.5797 12.5654C68.7887 12.5654 70.6949 13.2729 72.0657 14.5164C73.0039 13.4089 74.975 12.6171 77.0109 12.5682C77.1245 12.5654 77.2164 12.6579 77.2164 12.7722V16.5761C77.2164 16.6823 77.1326 16.7721 77.0271 16.7775C75.5184 16.8591 74.4072 17.9366 74.4072 20.0046C74.4072 24.2466 71.1626 27.2396 66.5797 27.2396C65.3413 27.2396 64.2058 27.0383 63.2026 26.6329L62.8998 26.9022C61.2938 28.3498 60.5259 29.2259 61.4966 30.1674C63.2351 31.8163 67.4827 27.743 72.8363 27.743C75.8807 27.743 76.8487 30.2 76.8487 33.4979V36.7957C76.8487 36.9072 76.7595 36.9998 76.6459 36.9998H72.3658C72.2549 36.9998 72.1657 36.91 72.163 36.7984L72.1306 34.072ZM69.7215 20.0018C69.7215 17.9774 68.2182 16.5761 66.1633 16.7938C64.8682 16.9299 63.6353 18.1353 63.4433 19.4304C63.1351 21.5147 64.5113 23.033 66.577 23.033C68.4183 23.033 69.7215 21.7868 69.7215 20.0046V20.0018Z"></path>
<path fill="#0A3B6D" d="M94.7367 13.1045V30.0316C94.7367 30.1432 94.6475 30.2357 94.534 30.2357H91.238C91.1353 30.2357 91.0488 30.1568 91.038 30.0534L90.8216 27.9474C90.8108 27.8521 90.6865 27.8222 90.6351 27.9038C89.3021 30.0425 87.3987 30.5731 85.3384 30.5731C81.3908 30.5731 78.2139 27.6453 78.2139 23.5394V13.1045C78.2139 12.9929 78.3031 12.9004 78.4167 12.9004H82.6616C82.7725 12.9004 82.8644 12.9902 82.8644 13.1045V22.0565C82.8644 24.5815 84.2677 26.3638 86.2441 26.3638C88.4856 26.3638 90.0565 24.5815 90.0565 22.0565V13.1045C90.0565 12.9929 90.1457 12.9004 90.2593 12.9004H94.5367C94.6475 12.9004 94.7395 12.9902 94.7395 13.1045H94.7367Z"></path>
<path fill="#0A3B6D" d="M98.0791 8.96286C98.0791 7.28946 99.5148 5.90449 101.234 6.00516C102.708 6.09224 103.908 7.29763 103.995 8.78056C104.098 10.5111 102.722 11.9587 101.056 11.9587C99.3904 11.9587 98.0791 10.6118 98.0791 8.96286ZM98.9173 13.4035H103.195C103.306 13.4035 103.397 13.4933 103.397 13.6076V30.064C103.397 30.1756 103.308 30.2681 103.195 30.2681H98.9173C98.8064 30.2681 98.7145 30.1783 98.7145 30.064V13.6076C98.7145 13.496 98.8037 13.4035 98.9173 13.4035Z"></path>
</svg>
